<svg width="867" height="379" viewBox="0 0 867 379" fill="none" xmlns="http://www.w3.org/2000/svg">
<path d="M0 140L13.1254 100.117C26.2508 60.8313 52.3812 -19.8312 78.8729 4.51688C105.064 27.9688 131.254 156.431 157.746 187.8C183.936 219.169 210.127 156.431 236.619 147.917C262.749 140 289 187.8 315.492 219.617C341.562 252.031 367.873 266.969 394.365 275.483C420.375 283.4 446.746 283.4 472.635 251.583C499.187 219.169 525.619 156.431 551.508 140C578 123.569 604.492 156.431 630.381 187.8C656.813 219.169 683.365 252.031 709.254 219.617C735.625 187.8 761.635 92.2 788.127 52.3169C814.438 13.0313 840.508 27.9687 853.754 36.4831L867 44.4V379H853.875C840.749 379 814.619 379 788.127 379C761.936 379 735.746 379 709.254 379C683.064 379 656.873 379 630.381 379C604.251 379 578 379 551.508 379C525.438 379 499.127 379 472.635 379C446.625 379 420.254 379 394.365 379C367.813 379 341.381 379 315.492 379C289 379 262.508 379 236.619 379C210.187 379 183.635 379 157.746 379C131.375 379 105.365 379 78.8729 379C52.5619 379 26.4917 379 13.2458 379H0V140Z" fill="#00CCC5"/>
</svg>
