<svg width="867" height="488" viewBox="0 0 867 488" fill="none" xmlns="http://www.w3.org/2000/svg">
<rect y="1" width="867" height="141" fill="#00CCC5"/>
<g clip-path="url(#clip0_3_25)">
<path d="M0 230.655L11.1385 249.15C22.2169 267.992 44.5542 304.462 66.8312 318.615C88.9277 332.248 111.385 323.565 133.662 295.518C155.639 267.992 177.615 221.103 199.892 198.266C222.289 175.082 244.446 175.082 266.723 179.685C289 184.634 311.277 193.317 333.554 226.053C355.711 258.441 378.108 314.013 400.385 346.401C422.361 379.137 444.337 387.82 466.615 369.585C489.072 351.351 511.169 304.462 533.446 300.12C555.783 295.778 578 332.248 600.277 314.013C622.434 295.778 644.831 221.103 667.108 216.762C689.145 212.42 711.662 276.675 733.337 295.518C755.855 314.013 777.892 286.227 800.169 253.839C822.566 221.103 844.723 184.634 856.162 165.791L867 147.296V119.51H855.861C844.783 119.51 822.446 119.51 800.169 119.51C778.072 119.51 755.615 119.51 733.337 119.51C711.361 119.51 689.385 119.51 667.108 119.51C644.711 119.51 622.554 119.51 600.277 119.51C578 119.51 555.723 119.51 533.446 119.51C511.289 119.51 488.892 119.51 466.615 119.51C444.639 119.51 422.662 119.51 400.385 119.51C377.928 119.51 355.831 119.51 333.554 119.51C311.217 119.51 289 119.51 266.723 119.51C244.566 119.51 222.169 119.51 199.892 119.51C177.855 119.51 155.337 119.51 133.662 119.51C111.145 119.51 89.1083 119.51 66.8312 119.51C44.4337 119.51 22.2771 119.51 10.8375 119.51H0V230.655Z" fill="#00CCC5"/>
</g>
<defs>
<clipPath id="clip0_3_25">
<rect width="867" height="277.861" fill="white" transform="matrix(1 0 0 -1 0 397.371)"/>
</clipPath>
</defs>
</svg>
